<svg xmlns="http://www.w3.org/2000/svg" width="130.241" height="120" viewBox="0 0 130.241 120">
  <g id="Group_42" data-name="Group 42" transform="translate(0 -20.13)">
    <g id="Group_41" data-name="Group 41" transform="translate(0 20.13)">
      <path id="Path_55" data-name="Path 55" d="M129.758,55.895a3.817,3.817,0,0,0-4.274-3.32A21.656,21.656,0,0,0,114.351,57.7q-.234-1.875-.607-3.728a16.25,16.25,0,0,0,7.957-8.422,18.176,18.176,0,0,0-1.758-16.436,62.724,62.724,0,0,0-5.709-7.682,3.816,3.816,0,0,0-5.382-.359,21.517,21.517,0,0,0-6.717,12.646c0,.014-.005.028-.007.042a22.693,22.693,0,0,0,1.4,13.081A41.912,41.912,0,0,1,87.659,99.216a7.423,7.423,0,0,0-2.577,2.757H68.936V86.385l13.43,6.973a3.818,3.818,0,0,0,5.522-4.012L84.7,70.179l13.84-13.634a3.818,3.818,0,0,0-2.109-6.491l-19.12-2.88L68.6,27.9a3.819,3.819,0,0,0-6.953,0l-8.717,19.27-19.12,2.88A3.819,3.819,0,0,0,31.7,56.545l13.84,13.634L42.353,89.346a3.819,3.819,0,0,0,5.522,4.012L61.3,86.384v15.589H45.079a11.786,11.786,0,0,0-3.809-3.627A42.209,42.209,0,0,1,26.8,46.8,22.7,22.7,0,0,0,28.18,33.76l-.007-.041a21.516,21.516,0,0,0-6.717-12.646,3.816,3.816,0,0,0-5.382.359,62.663,62.663,0,0,0-5.708,7.68A18.176,18.176,0,0,0,8.607,45.549a16.25,16.25,0,0,0,7.957,8.422q-.374,1.856-.608,3.737a22.082,22.082,0,0,0-11.2-5.134A3.817,3.817,0,0,0,.483,55.9a56.914,56.914,0,0,0-.434,9.558A18.226,18.226,0,0,0,8.055,80.037a15.833,15.833,0,0,0,9.015,2.734,17.67,17.67,0,0,0,2.25-.146q.712,1.731,1.55,3.406A20.838,20.838,0,0,0,8.992,87.822a3.816,3.816,0,0,0-1.686,5.194,63.167,63.167,0,0,0,4.871,8.113,17.968,17.968,0,0,0,14.79,7.906,15.97,15.97,0,0,0,10.473-4.056,9.081,9.081,0,0,1,.969.744c0,.019,0,.041,0,.067V132.5H34.6a3.816,3.816,0,0,0,0,7.631h61.05a3.816,3.816,0,0,0,0-7.631H91.83V105.607c.344-.219.682-.445,1.02-.671a16.18,16.18,0,0,0,10.758,4.122h.123c5.5,0,11.195-2.882,15.1-8.83a56.58,56.58,0,0,0,4.318-7.378,3.816,3.816,0,0,0-1.771-5.014,20.469,20.469,0,0,0-11.873-1.759q.846-1.689,1.56-3.443a17.3,17.3,0,0,0,2.145.135,16.214,16.214,0,0,0,9.125-2.789,18.314,18.314,0,0,0,7.856-14.548,56.413,56.413,0,0,0-.433-9.536ZM52.3,66.133l-9.816-9.669L56.116,54.41a3.815,3.815,0,0,0,2.908-2.2l6.1-13.476,6.1,13.476a3.816,3.816,0,0,0,2.908,2.2l13.627,2.053-9.816,9.669a3.816,3.816,0,0,0-1.086,3.344l2.259,13.591L66.932,76.745a3.806,3.806,0,0,0-3.57-.028l-12.23,6.35,2.259-13.591A3.815,3.815,0,0,0,52.3,66.133Zm57.347-31.086a16.972,16.972,0,0,1,1.7-5.01q1.106,1.517,2.156,3.169a10.454,10.454,0,0,1,1.146,9.427l-.017.041a8.307,8.307,0,0,1-3.035,3.743c-1.107-2.982-2.923-5.536-1.947-11.371ZM18.711,46.418a8.312,8.312,0,0,1-3.035-3.743l-.017-.041A10.455,10.455,0,0,1,16.807,33.2q1.047-1.648,2.154-3.167a16.971,16.971,0,0,1,1.7,5.01C21.594,40.642,20,42.938,18.711,46.418ZM12.35,73.73l-.085-.057a10.637,10.637,0,0,1-4.589-8.458c0-.026,0-.051,0-.077-.056-1.215-.056-2.473,0-3.792a16.229,16.229,0,0,1,4.538,3.287,15.037,15.037,0,0,1,4,6.985q.288,1.779.7,3.53A8.139,8.139,0,0,1,12.35,73.73Zm6.006,22.919c-.724-.981-1.4-2.03-2.032-3.089a16.675,16.675,0,0,1,5.276.329,14.948,14.948,0,0,1,7.226,3.685q1.187,1.29,2.465,2.5C27.79,102.31,22.341,102.059,18.356,96.649ZM46.042,132.5V109.6H84.2V132.5Zm68-38.92c-.679,1.084-1.414,2.185-2.112,3.254-3.116,4.23-8.5,6.071-12.916,3.226q1.336-1.24,2.571-2.568a16.684,16.684,0,0,1,12.457-3.912Zm8.523-28.465c0,.033,0,.066,0,.1a10.711,10.711,0,0,1-4.493,8.437,8.519,8.519,0,0,1-4.627,1.495c.774-3.34.661-6.429,4.645-10.5a16.321,16.321,0,0,1,4.48-3.289c.056,1.313.055,2.561,0,3.761Z" transform="translate(0 -20.13)" fill="#101a37"/>
      <path id="Path_56" data-name="Path 56" d="M230.078,401.872H214.816a3.816,3.816,0,1,0,0,7.631h15.263a3.816,3.816,0,1,0,0-7.631Z" transform="translate(-157.327 -304.766)" fill="#101a37"/>
    </g>
  </g>
</svg>
