<svg xmlns="http://www.w3.org/2000/svg" width="48.214" height="45" viewBox="0 0 48.214 45">
  <g id="Group_62" data-name="Group 62" transform="translate(0 -17.067)">
    <g id="Group_59" data-name="Group 59" transform="translate(0 19.909)">
      <g id="Group_58" data-name="Group 58">
        <path id="Path_971" data-name="Path 971" d="M46.693,52.349H45.41V48.055a.8.8,0,0,0-.8-.8h-2.2a.8.8,0,0,0-.8.8v4.294H38.8a2.234,2.234,0,0,0-4.445-.446l-.047.446H30.438a6.974,6.974,0,0,1-12.668,0H13.915l-.047-.446a2.234,2.234,0,0,0-4.445.446H6.608V48.055a.8.8,0,0,0-.8-.8h-2.2a.8.8,0,0,0-.8.8v4.294H1.522a1.522,1.522,0,1,0,0,3.043H2.8v4.294a.8.8,0,0,0,.8.8H5.8a.8.8,0,0,0,.8-.8V55.392H9.743c.1.911.777,7.349.878,8.3a2.236,2.236,0,0,0,3.9,1.235l3.14-3.594v8.549l-8.125,3.3a2.905,2.905,0,0,0-1.778,2.253L6.141,86.065a2.905,2.905,0,0,0,5.744.876l1.372-9,7.516-3.054h6.672l7.516,3.054,1.372,9a2.905,2.905,0,0,0,5.744-.876L40.457,75.438a2.905,2.905,0,0,0-1.778-2.253l-8.189-3.327v-8.6l3.207,3.67a2.236,2.236,0,0,0,3.9-1.235l.878-8.3h3.128v4.294a.8.8,0,0,0,.8.8h2.2a.8.8,0,0,0,.8-.8V55.392h1.282a1.522,1.522,0,1,0,0-3.043ZM14.527,58.135l-.29-2.743h2.687Zm19.168,0-2.4-2.743h2.687Z" transform="translate(0 -47.251)" fill="#4a01f9"/>
      </g>
    </g>
    <g id="Group_61" data-name="Group 61" transform="translate(19.086 17.067)">
      <g id="Group_60" data-name="Group 60" transform="translate(0 0)">
        <circle id="Ellipse_20" data-name="Ellipse 20" cx="5.018" cy="5.018" r="5.018" fill="#4a01f9"/>
      </g>
    </g>
  </g>
</svg>
