<svg id="Group_48" data-name="Group 48" xmlns="http://www.w3.org/2000/svg" width="120" height="120" viewBox="0 0 120 120">
  <g id="Group_45" data-name="Group 45" transform="translate(24.652 76.615)">
    <g id="Group_44" data-name="Group 44">
      <rect id="Rectangle_43" data-name="Rectangle 43" width="7.031" height="10" fill="#101a37"/>
    </g>
  </g>
  <g id="Group_47" data-name="Group 47">
    <g id="Group_46" data-name="Group 46">
      <path id="Path_57" data-name="Path 57" d="M113.557,112.969V50.494h4.959V23.985H99.475L99.408.538H92.882L85.414,13.085,77.744.538H71.218V23.984H61.329V15.541l8.88-15H62.54L57.7,8.679,52.886.538H44.51l8.88,14.9v8.544H38.56a17.308,17.308,0,0,0,5.378-2.355V11.673h-6.9v5.954a7.393,7.393,0,0,1-2.893.572c-3.4,0-5.618-2.355-5.618-5.887,0-3.633,2.22-5.887,5.719-5.887a6.717,6.717,0,0,1,5.281,2.59L44.61,4.541C42.222,1.615,38.488,0,33.846,0c-7.77,0-13.321,5.079-13.321,12.312a11.849,11.849,0,0,0,8.7,11.673H1.484V50.494H6.443v62.475H0V120H120v-7.031ZM78.45,13.725h0l5.113,8.242h3.5l5.113-8.611.067,10.63H78.45Zm-39.466,99.01H13.474V50.494h25.51v62.241Zm67.5.027H46.016V101.016h60.469ZM46.016,93.984V78.95H54.2V93.984Zm60.469,0H98.731V78.95h7.753Zm0-22.066H80.431V78.95H91.7V93.984H61.231V78.95H72.5V71.918H46.016V50.494h60.469V71.918ZM8.516,43.463V31.016H111.484V43.463Z" fill="#101a37"/>
    </g>
  </g>
</svg>
