<svg id="Group_125" data-name="Group 125" xmlns="http://www.w3.org/2000/svg" width="16" height="16" viewBox="0 0 16 16">
  <g id="Group_124" data-name="Group 124">
    <g id="Group_123" data-name="Group 123">
      <g id="Group_122" data-name="Group 122">
        <circle id="Ellipse_29" data-name="Ellipse 29" cx="0.625" cy="0.625" r="0.625" transform="translate(11.438 5.938)" fill="#4a01f9"/>
        <path id="Path_1009" data-name="Path 1009" d="M13.5,1.25h-.812V.625a.625.625,0,0,0-1.25,0V1.25H8.594V.625a.625.625,0,0,0-1.25,0V1.25H4.531V.625a.625.625,0,0,0-1.25,0V1.25H2.5A2.5,2.5,0,0,0,0,3.75V13.5A2.5,2.5,0,0,0,2.5,16H7.281a.625.625,0,0,0,0-1.25H2.5A1.251,1.251,0,0,1,1.25,13.5V3.75A1.251,1.251,0,0,1,2.5,2.5h.781v.625a.625.625,0,0,0,1.25,0V2.5H7.344v.625a.625.625,0,0,0,1.25,0V2.5h2.844v.625a.625.625,0,0,0,1.25,0V2.5H13.5a1.251,1.251,0,0,1,1.25,1.25V7.313a.625.625,0,0,0,1.25,0V3.75A2.5,2.5,0,0,0,13.5,1.25Z" fill="#4a01f9"/>
        <path id="Path_1010" data-name="Path 1010" d="M273.781,270a3.781,3.781,0,1,0,3.781,3.781A3.785,3.785,0,0,0,273.781,270Zm0,6.313a2.531,2.531,0,1,1,2.531-2.531A2.534,2.534,0,0,1,273.781,276.313Z" transform="translate(-261.563 -261.563)" fill="#4a01f9"/>
        <path id="Path_1011" data-name="Path 1011" d="M372.531,331.281h-.281v-.656a.625.625,0,0,0-1.25,0v1.281a.625.625,0,0,0,.625.625h.906a.625.625,0,0,0,0-1.25Z" transform="translate(-359.406 -319.688)" fill="#4a01f9"/>
        <circle id="Ellipse_30" data-name="Ellipse 30" cx="0.625" cy="0.625" r="0.625" transform="translate(8.719 5.938)" fill="#4a01f9"/>
        <circle id="Ellipse_31" data-name="Ellipse 31" cx="0.625" cy="0.625" r="0.625" transform="translate(6 8.656)" fill="#4a01f9"/>
        <circle id="Ellipse_32" data-name="Ellipse 32" cx="0.625" cy="0.625" r="0.625" transform="translate(3.281 5.938)" fill="#4a01f9"/>
        <circle id="Ellipse_33" data-name="Ellipse 33" cx="0.625" cy="0.625" r="0.625" transform="translate(3.281 8.656)" fill="#4a01f9"/>
        <circle id="Ellipse_34" data-name="Ellipse 34" cx="0.625" cy="0.625" r="0.625" transform="translate(3.281 11.375)" fill="#4a01f9"/>
        <circle id="Ellipse_35" data-name="Ellipse 35" cx="0.625" cy="0.625" r="0.625" transform="translate(6 11.375)" fill="#4a01f9"/>
        <circle id="Ellipse_36" data-name="Ellipse 36" cx="0.625" cy="0.625" r="0.625" transform="translate(6 5.938)" fill="#4a01f9"/>
      </g>
    </g>
  </g>
</svg>
