<svg id="Group_33" data-name="Group 33" xmlns="http://www.w3.org/2000/svg" width="44.759" height="45" viewBox="0 0 44.759 45">
  <path id="Path_44" data-name="Path 44" d="M203.227,165.222v-4.811a.8.8,0,0,1,1.6,0v4.811a.8.8,0,1,1-1.6,0Zm0,0" transform="translate(-178.515 -145.11)" fill="#4a01f9"/>
  <path id="Path_45" data-name="Path 45" d="M266.588,195.458l.8,2.406a.8.8,0,0,1-1.524.507l-.8-2.406a.8.8,0,0,1,1.524-.507Zm0,0" transform="translate(-246.729 -177.203)" fill="#4a01f9"/>
  <path id="Path_46" data-name="Path 46" d="M133.378,198.919a.8.8,0,0,1-.76-1.055l.8-2.406a.8.8,0,0,1,1.524.507l-.8,2.406A.8.8,0,0,1,133.378,198.919Zm0,0" transform="translate(-102.251 -177.203)" fill="#4a01f9"/>
  <path id="Path_47" data-name="Path 47" d="M250.393,80.567a6.322,6.322,0,0,0,2.633-.821l-.537,2.085a1.893,1.893,0,0,1-1.1.606,2.86,2.86,0,0,1-1.844-.459l.71-.954A.779.779,0,0,0,250.393,80.567Zm0,0" transform="translate(-230.917 -72.502)" fill="#4a01f9"/>
  <path id="Path_48" data-name="Path 48" d="M.205,36.609c.513-2.85,2.385-12.62,4.946-18.643C8.439,10.231,14.5,1.244,16.144.415,17.907-.476,28.482.139,31.764,1.6c3.095,1.377,2.743,4.935,2.165,8.161a13.478,13.478,0,0,0-.2,1.352,2.163,2.163,0,0,1-1.057.179,1.736,1.736,0,0,1-1.094-.706,1.012,1.012,0,0,1-.284-.7l.316-1.817a.8.8,0,1,0-1.58-.273l-.3,1.718a2.194,2.194,0,0,1-1.008,1.313,1.908,1.908,0,0,1-1.47-.08c.008-.023.026-.04.032-.063l.8-3.364a.8.8,0,1,0-1.561-.372l-.759,3.187a1.676,1.676,0,0,1-1.085.628,2.114,2.114,0,0,1-1.477-.716.812.812,0,0,0,.066-.149l1.035-4.009a.8.8,0,0,0-.9-.99.789.789,0,0,0-.572.137c-1.729,1.236-3.118,1.693-4.01,1.322a2.316,2.316,0,0,1-1.147-1.6.8.8,0,0,0-1.582.265,3.976,3.976,0,0,0,1.992,2.75l-2.366,3.179a3.9,3.9,0,0,0-.777,2.224c-.039,1.2-.02,2.4,0,3.564a33.776,33.776,0,0,1-.4,7.247,72.751,72.751,0,0,1-2.438,8.484l-.187.566a.372.372,0,0,0,0,.039.754.754,0,0,0-.021.169.87.87,0,0,0,0,.143.8.8,0,0,0,.041.146.754.754,0,0,0,.055.143.723.723,0,0,0,.085.109.74.74,0,0,0,.115.123c.011.009.016.022.028.029a.742.742,0,0,0,.184.092c.01,0,.017.012.027.016h.007a.8.8,0,0,0,.22.036c.008,0,.017,0,.026,0A.793.793,0,0,0,13,34c.023-.01.045-.021.068-.034a.784.784,0,0,0,.259-.218l.006-.005c.058-.08,5.774-8.081,10.864-9.049,6.9-1.309,13.824,2.973,13.893,3.016a.8.8,0,0,0,.852-1.363,25.494,25.494,0,0,0-4.775-2.2l.295-.4a13.137,13.137,0,0,1,3.493-3.689,27.762,27.762,0,0,1,3.69-1.781c.465-.2.93-.4,1.386-.6l1.918-.86V44.971H40.941a.753.753,0,0,0-.148.03l-.012-.006c-.045-.011-3.681-.932-6.038-1.822a23.467,23.467,0,0,0,5.41-4.159.8.8,0,1,0-1.2-1.062c-.08.09-8.112,8.968-19.875,6C8.665,41.331,4.813,40.176,3.881,39.884a.77.77,0,0,1-.241-.123L.505,37.391a.8.8,0,0,1-.3-.782Zm19.7,4.33a19.584,19.584,0,0,0,4.746.629c6.476,0,8.857-4.009,8.975-4.217a.8.8,0,0,0-1.39-.8c-.125.212-3.088,5.045-11.943,2.831a.8.8,0,1,0-.388,1.556Zm0,0" transform="translate(-0.192 0)" fill="#4a01f9"/>
</svg>
