<svg xmlns="http://www.w3.org/2000/svg" width="35.722" height="45" viewBox="0 0 35.722 45">
  <g id="our-goal-icon" transform="translate(-52.577)">
    <g id="Group_146" data-name="Group 146" transform="translate(52.577 0)">
      <path id="Path_1037" data-name="Path 1037" d="M65.812,435H57.871a5.294,5.294,0,0,0-5.294,5.294v1.324H71.106v-1.324A5.294,5.294,0,0,0,65.812,435Z" transform="translate(-52.577 -396.618)" fill="#4a01f9"/>
      <path id="Path_1038" data-name="Path 1038" d="M136.672,10.713l6.1-7.627c-1.478-.178-13.2-3.3-24.9-.786V0h-2.647V31.991a3.972,3.972,0,0,0-2.647,3.744h7.941a3.971,3.971,0,0,0-2.647-3.744V20.926c13.529-2.734,23.306.625,25.134.868Z" transform="translate(-107.283 0)" fill="#4a01f9"/>
    </g>
  </g>
</svg>
