<svg xmlns="http://www.w3.org/2000/svg" width="45" height="45" viewBox="0 0 45 45">
  <g id="our-mission-icon" transform="translate(0 0.001)">
    <g id="Group_145" data-name="Group 145" transform="translate(0 -0.001)">
      <path id="Path_1032" data-name="Path 1032" d="M39.323,17.6a21.624,21.624,0,0,0-7.379,1.291l.3.3a3.961,3.961,0,0,1,1.1,3.506l-.693,3.823a14.446,14.446,0,1,1-6.129,6.129l-3.823.693a3.976,3.976,0,0,1-.706.064,3.934,3.934,0,0,1-2.8-1.16l-.3-.3A21.726,21.726,0,1,0,39.323,17.6Z" transform="translate(-16.049 -16.049)" fill="#4a01f9"/>
      <path id="Path_1033" data-name="Path 1033" d="M217.727,219.048a1.316,1.316,0,0,1-.933-.387l-3.048-3.048a4.514,4.514,0,1,0,1.867-1.867l3.048,3.048a1.32,1.32,0,0,1-.933,2.253Z" transform="translate(-194.453 -194.454)" fill="#4a01f9"/>
      <path id="Path_1034" data-name="Path 1034" d="M132.986,134.852a11.812,11.812,0,1,0,1.867-1.867l3.319,3.319a7.159,7.159,0,1,1-1.867,1.867Z" transform="translate(-118.931 -118.931)" fill="#4a01f9"/>
      <path id="Path_1035" data-name="Path 1035" d="M79.275,6.179A1.32,1.32,0,0,0,78.91,5.01L74.286.386a1.32,1.32,0,0,0-2.17.472L70.809,4.364l7.445,7.445Z" transform="translate(-64.577 0.001)" fill="#4a01f9"/>
      <path id="Path_1036" data-name="Path 1036" d="M5.944,79.3a1.325,1.325,0,0,0,.236-.021l5.631-1.021L4.365,70.809.859,72.116a1.32,1.32,0,0,0-.472,2.17L5.01,78.91A1.32,1.32,0,0,0,5.944,79.3Z" transform="translate(0 -64.577)" fill="#4a01f9"/>
    </g>
  </g>
</svg>
