<svg xmlns="http://www.w3.org/2000/svg" width="70.857" height="50" viewBox="0 0 70.857 50">
  <g id="Group_117" data-name="Group 117" transform="translate(-1 -5.415)">
    <path id="Path_1007" data-name="Path 1007" d="M14.222,38.069A39.853,39.853,0,0,1,6.936,49.587a3.5,3.5,0,0,0-.33,4.215,3.441,3.441,0,0,0,2.913,1.611,3.538,3.538,0,0,0,.99-.142c6.959-2.033,23.191-9.255,23.627-32.339C34.3,14.02,27.784,6.362,19.3,5.5A16.58,16.58,0,0,0,1,21.984,16.373,16.373,0,0,0,14.222,38.069ZM9.633,13.192a11.716,11.716,0,0,1,7.928-3.056,12.144,12.144,0,0,1,1.257.065c6.063.615,10.716,6.169,10.594,12.643-.3,15.973-8.949,23.163-16.111,26.38a41.813,41.813,0,0,0,5.313-9.414,4.519,4.519,0,0,0-.224-3.816,4.791,4.791,0,0,0-3.253-2.411,11.847,11.847,0,0,1-5.5-20.39Z" transform="translate(0 0.001)" fill="#101a37"/>
    <path id="Path_1008" data-name="Path 1008" d="M22.577,53.8a3.441,3.441,0,0,0,2.913,1.611,3.544,3.544,0,0,0,.99-.142c6.959-2.033,23.19-9.255,23.626-32.339h0C50.271,14.02,43.753,6.364,35.263,5.5A16.58,16.58,0,0,0,16.97,21.986,16.373,16.373,0,0,0,30.191,38.07,39.83,39.83,0,0,1,22.9,49.59a3.492,3.492,0,0,0-.328,4.214ZM34.582,39.813A4.523,4.523,0,0,0,34.361,36a4.8,4.8,0,0,0-3.254-2.414,11.847,11.847,0,0,1-5.5-20.39,11.712,11.712,0,0,1,7.927-3.056,12.177,12.177,0,0,1,1.257.065c6.062.615,10.716,6.169,10.594,12.643-.3,15.974-8.949,23.163-16.111,26.38a41.876,41.876,0,0,0,5.312-9.412Z" transform="translate(21.749)" fill="#101a37"/>
  </g>
</svg>
