<svg xmlns="http://www.w3.org/2000/svg" width="65.162" height="70" viewBox="0 0 65.162 70">
  <g id="Group_78" data-name="Group 78" transform="translate(-17.692)">
    <g id="Group_75" data-name="Group 75" transform="translate(17.692 27.819)">
      <g id="Group_74" data-name="Group 74">
        <path id="Path_985" data-name="Path 985" d="M81.49,229.025a4.623,4.623,0,0,0-3.29-1.363h-.11a3.551,3.551,0,0,0-2.884,1.483l-6.927-6.927-1.41-10.572a9.449,9.449,0,0,0-9.34-8.174,2.346,2.346,0,0,0-2.343,2.343v2.419a4.914,4.914,0,0,1-9.827,0v-2.419a2.347,2.347,0,0,0-2.347-2.343,9.448,9.448,0,0,0-9.336,8.174l-1.41,10.572-6.925,6.925a3.6,3.6,0,0,0-.375-.441,3.529,3.529,0,0,0-2.513-1.04h0a4.762,4.762,0,0,0-.141,9.521,5.363,5.363,0,0,0,4.375,8.47H73.858a5.363,5.363,0,0,0,4.375-8.47,4.776,4.776,0,0,0,4.62-4.777v-.091A4.622,4.622,0,0,0,81.49,229.025Zm-21.418-4.274.391-3.323.362,1.808a8.364,8.364,0,0,0,2.295,4.288l7.4,7.4H62.044l-1.775-7.1A8.507,8.507,0,0,1,60.073,224.752ZM43.016,205.741a.076.076,0,0,1,.076.076v2.419a7.181,7.181,0,0,0,14.363,0v-2.419a.076.076,0,0,1,.079-.076,7.087,7.087,0,0,1,2.441.434L57.82,224.486a10.763,10.763,0,0,0,.249,3.885l1.637,6.549H40.84l1.637-6.549a10.772,10.772,0,0,0,.249-3.885l-2.154-18.311A7.1,7.1,0,0,1,43.016,205.741Zm-2.933,15.687.391,3.323a8.51,8.51,0,0,1-.2,3.07l-1.775,7.1H30.03l7.4-7.4a8.364,8.364,0,0,0,2.295-4.288ZM22.455,234.92a2.495,2.495,0,1,1,0-4.989,1.285,1.285,0,0,1,1.285,1.285,1.134,1.134,0,0,0,1.936.8l8.467-8.467a1.134,1.134,0,0,0,.322-.652l1.46-10.952a7.137,7.137,0,0,1,2.509-4.536l.792,6.736L37.5,222.792a6.1,6.1,0,0,1-1.674,3.129l-9,9H22.455Zm23.056,8.467H26.688a3.1,3.1,0,1,1,0-6.2h7.937v.554a3.532,3.532,0,0,0,2.782,3.468l8.1,1.8v.376Zm0-2.7L37.9,239a1.277,1.277,0,0,1-1.006-1.255v-.554h8.618Zm28.348,2.7H47.779v-6.2h26.08a3.1,3.1,0,0,1,0,6.2Zm6.728-10.979a2.505,2.505,0,0,1-2.492,2.512H73.723l-9-9a6.1,6.1,0,0,1-1.675-3.129l-1.729-8.645.792-6.736a7.138,7.138,0,0,1,2.509,4.536l1.46,10.952a1.134,1.134,0,0,0,.322.652l8.467,8.467a1.134,1.134,0,0,0,1.936-.8,1.287,1.287,0,0,1,1.285-1.285H78.2a2.386,2.386,0,0,1,2.386,2.386v.091Z" transform="translate(-17.692 -203.473)" fill="#101a37"/>
      </g>
    </g>
    <g id="Group_77" data-name="Group 77" transform="translate(39.463)">
      <g id="Group_76" data-name="Group 76">
        <path id="Path_986" data-name="Path 986" d="M192.372,5.882a4.763,4.763,0,1,0-9.259,0,10.823,10.823,0,0,0-6.181,9.767v1.111a1.134,1.134,0,0,0,1.127,1.134c.074,0,.54,0,1.292-.049v1.432a8.391,8.391,0,1,0,16.782,0V17.865a6.661,6.661,0,0,0,1.285.127,1.134,1.134,0,0,0,1.134-1.134v-1.21A10.823,10.823,0,0,0,192.372,5.882Zm-4.63-3.614a2.48,2.48,0,0,1,2.466,2.857,10.733,10.733,0,0,0-4.931,0,2.53,2.53,0,0,1-.029-.363A2.5,2.5,0,0,1,187.742,2.268Zm6.123,17.009a6.123,6.123,0,0,1-12.246,0V17.613a28.93,28.93,0,0,0,9.459-2.921,10.835,10.835,0,0,0,2.787,2.319v2.265ZM192.312,12.6a1.134,1.134,0,0,0-1.519-.345A27.576,27.576,0,0,1,179.2,15.577a8.542,8.542,0,0,1,17.084,0A8.065,8.065,0,0,1,192.312,12.6Z" transform="translate(-176.932)" fill="#101a37"/>
      </g>
    </g>
  </g>
</svg>
