<svg xmlns="http://www.w3.org/2000/svg" width="45" height="45" viewBox="0 0 45 45">
  <g id="Group_57" data-name="Group 57" transform="translate(-32 -32)">
    <path id="Path_960" data-name="Path 960" d="M332.054,33.607v-.8a.8.8,0,1,0-1.607,0v.8a4.022,4.022,0,0,1-4.018,4.018H320.8a.8.8,0,1,0,0,1.607h5.625a5.631,5.631,0,0,0,5.625-5.625Z" transform="translate(-259.071)" fill="#4a01f9"/>
    <path id="Path_961" data-name="Path 961" d="M424.061,260.156a8.038,8.038,0,0,0-5.353-7.576l4.191,11.737A8.024,8.024,0,0,0,424.061,260.156Z" transform="translate(-347.865 -198.424)" fill="#4a01f9"/>
    <path id="Path_962" data-name="Path 962" d="M69.2,381.489l-.05,0a5.6,5.6,0,0,1-1.75-.28l-5.714,5.171a2.416,2.416,0,0,1,1.382.932l6.352-5.838Z" transform="translate(-26.706 -314.133)" fill="#4a01f9"/>
    <circle id="Ellipse_19" data-name="Ellipse 19" cx="0.804" cy="0.804" r="0.804" transform="translate(41.643 60.929)" fill="#4a01f9"/>
    <rect id="Rectangle_285" data-name="Rectangle 285" width="3.214" height="3.214" rx="1.607" transform="translate(32 73.786)" fill="#4a01f9"/>
    <path id="Path_963" data-name="Path 963" d="M351.069,151.339h.983L340.86,120h-1.508l11.212,31.393A2.412,2.412,0,0,1,351.069,151.339Z" transform="translate(-276.48 -79.161)" fill="#4a01f9"/>
    <rect id="Rectangle_286" data-name="Rectangle 286" width="3.214" height="3.214" rx="1.607" transform="translate(73.786 73.786)" fill="#4a01f9"/>
    <path id="Path_964" data-name="Path 964" d="M331.019,254.908l-1.294-3.625a8.072,8.072,0,0,0-4.414,3.268Z" transform="translate(-263.849 -197.257)" fill="#4a01f9"/>
    <path id="Path_965" data-name="Path 965" d="M41.643,140.61V140.4a.808.808,0,0,0-.69-.8l-8.036-1.148a.844.844,0,0,0-.117-.008.8.8,0,0,0-.8.8v1.362a.8.8,0,0,0,.8.8h8.036A.8.8,0,0,0,41.643,140.61Z" transform="translate(0 -95.753)" fill="#4a01f9"/>
    <path id="Path_966" data-name="Path 966" d="M244.21,179.428l-.484-1.356-11.1,10.04,2,.125Z" transform="translate(-180.477 -131.4)" fill="#4a01f9"/>
    <path id="Path_967" data-name="Path 967" d="M72.784,193.135,69.21,184H67.721l3.811,9.74a5.6,5.6,0,0,1,1.252-.6Z" transform="translate(-32.133 -136.732)" fill="#4a01f9"/>
    <path id="Path_968" data-name="Path 968" d="M99.782,296.036l.575-.036.671-.042-.845-1.559a2.415,2.415,0,1,1,1.412-.767l1.2,2.216,22.674-1.417.05,0a2.4,2.4,0,0,0,1.211-.328l-1.613-4.517L99.782,288a4.018,4.018,0,0,0,0,8.036Z" transform="translate(-57.359 -230.286)" fill="#4a01f9"/>
    <path id="Path_969" data-name="Path 969" d="M332.015,368.393a8.072,8.072,0,0,0,3.114-.626l-1.356-3.8a4.009,4.009,0,0,1-1.731.4l-6.725.42A8.068,8.068,0,0,0,332.015,368.393Z" transform="translate(-263.854 -298.625)" fill="#4a01f9"/>
    <path id="Path_970" data-name="Path 970" d="M80,456h35.357v1.607H80Z" transform="translate(-43.179 -381.411)" fill="#4a01f9"/>
  </g>
</svg>
