<svg xmlns="http://www.w3.org/2000/svg" width="119.581" height="120" viewBox="0 0 119.581 120">
  <g id="Group_51" data-name="Group 51" transform="translate(-0.894)">
    <path id="Path_59" data-name="Path 59" d="M247.4,15.248a2.36,2.36,0,0,0,2.36-2.36V2.36a2.36,2.36,0,0,0-4.721,0V12.888A2.361,2.361,0,0,0,247.4,15.248Z" transform="translate(-186.921)" fill="#101a37"/>
    <path id="Path_60" data-name="Path 60" d="M118.172,143.989,114,139.831a7.9,7.9,0,0,0-9.353-1.335l-7.858-7.848.383-.382a8.192,8.192,0,0,0,0-11.568,8.1,8.1,0,0,0-4.109-2.222,8.243,8.243,0,0,0,.326-2.3,8.174,8.174,0,0,0-6.5-8.006,8.242,8.242,0,0,0,.326-2.3,8.166,8.166,0,0,0-6.5-8,8.168,8.168,0,0,0-8.73-10.425L56.412,82.5c-2.375-.45-5.34-.748-7.212.959a4.263,4.263,0,0,0-.357.37,8.208,8.208,0,0,0-8.612,1.894,8.121,8.121,0,0,0-2.391,5.786,8.253,8.253,0,0,0,.325,2.3,8.175,8.175,0,0,0-6.5,8,8.229,8.229,0,0,0,.326,2.3,8.185,8.185,0,0,0-5.074,12.63,8.18,8.18,0,0,0-3.142,13.531l.381.38L16.3,138.495a7.892,7.892,0,0,0-8.929,1.547L3.2,144.2a7.885,7.885,0,0,0,0,11.135l5.207,5.2a2.36,2.36,0,0,0,3.336-3.34L6.531,152a3.165,3.165,0,0,1,0-4.454l4.173-4.161a3.16,3.16,0,0,1,3.85-.472,2.38,2.38,0,0,0,.3.363,2.349,2.349,0,0,0,.678.472l23.928,23.893a2.325,2.325,0,0,0,1.138,1.15,3.159,3.159,0,0,1-.131,4.31l-4.168,4.163a3.171,3.171,0,0,1-4.463,0l-5.207-5.208a2.36,2.36,0,1,0-3.338,3.338l5.211,5.211a7.9,7.9,0,0,0,11.131,0l4.171-4.166a7.892,7.892,0,0,0,1.105-9.748l8.844-8.834.028-.029c1.013-1.047,3.833-.851,6.56-.662a33.948,33.948,0,0,0,6.209.041l9.685,9.674a7.888,7.888,0,0,0,1.339,9.345l4.171,4.166a7.892,7.892,0,0,0,11.133,0l25.3-25.268a7.884,7.884,0,0,0,0-11.136ZM55.533,87.141l10.239,1.938-6.129,6.126a14.88,14.88,0,0,1-3.673-2.669c-1.951-1.867-3.347-4.022-3.474-5.366a.006.006,0,0,1,0,0h0a2.063,2.063,0,0,1-.01-.233,8,8,0,0,1,3.047.206ZM43.566,89.066a3.482,3.482,0,0,1,4.4-.417c.766,3.21,3.5,6.12,4.736,7.3.913.874,3.843,3.493,6.8,4.213a3.464,3.464,0,0,1-5.3,4.424h0L43.566,93.958a3.476,3.476,0,0,1,0-4.892ZM37.4,99.366a3.481,3.481,0,0,1,4.9,0l8.572,8.554a3.469,3.469,0,0,1-4.91,4.9h0l-6.5-6.5-.031-.03L37.4,104.261a3.464,3.464,0,0,1,0-4.895Zm-6.18,10.3a3.492,3.492,0,0,1,4.889-.016l6.523,6.52a3.465,3.465,0,0,1-4.909,4.89L35.357,118.7l0,0-4.136-4.131a3.473,3.473,0,0,1,0-4.9Zm-4.111,12.372a3.489,3.489,0,0,1,4.912,0l2.368,2.365a3.464,3.464,0,0,1-4.911,4.888l-.3-.3-.011-.012-.014-.012-2.045-2.037a3.466,3.466,0,0,1,0-4.9Zm48.1,26.826a2.36,2.36,0,0,0-3.338,0l-2.1,2.1c-2,2-5.611,1.744-9.108,1.5-3.8-.264-7.724-.536-10.264,2.072l-8.694,8.684L19.964,141.505l7.694-7.68a8.186,8.186,0,0,0,12.46-6.981c0-.02,0-.041,0-.061h.061a8.165,8.165,0,0,0,8.183-8.173c0-.02,0-.041,0-.061h.062a8.156,8.156,0,0,0,8.183-8.235h.063a8.188,8.188,0,0,0,6.986-12.445L70.4,91.132a3.463,3.463,0,0,1,1.772-.944c.07-.007.14-.019.208-.032a3.459,3.459,0,0,1,2.938,5.871l-2.054,2.045-.021.02-2.366,2.362a2.36,2.36,0,0,0,3.336,3.34l2.062-2.059h0l.312-.311a3.477,3.477,0,0,1,4.9.012,3.464,3.464,0,0,1-.005,4.893l-2.066,2.07h0l-2.365,2.356a2.36,2.36,0,0,0,3.331,3.345l2.376-2.366a3.464,3.464,0,0,1,4.9,4.9l-4.118,4.12a2.36,2.36,0,1,0,3.338,3.337l2.018-2.019c.011-.011.024-.021.035-.032a3.464,3.464,0,0,1,4.9,4.895l-2.052,2.05,0,0,0,0-3.257,3.253a2.36,2.36,0,0,0,3.336,3.34l1.593-1.591,7.635,7.626-21.74,21.713-7.789-7.78a9.282,9.282,0,0,0,1.55-1.248l2.1-2.1a2.36,2.36,0,0,0,0-3.338Zm39.628,2.923-25.3,25.268a3.172,3.172,0,0,1-4.461,0l-4.171-4.166a3.156,3.156,0,0,1,0-4.448l25.3-25.268a3.172,3.172,0,0,1,4.463,0l4.17,4.158a3.164,3.164,0,0,1,0,4.455Z" transform="translate(0 -62.899)" fill="#101a37"/>
    <path id="Path_61" data-name="Path 61" d="M91.017,15.36a2.36,2.36,0,0,0,3.335-3.341l-8.6-8.584a2.36,2.36,0,0,0-3.335,3.341Z" transform="translate(-61.885 -2.102)" fill="#101a37"/>
    <path id="Path_62" data-name="Path 62" d="M374.012,16.05a2.354,2.354,0,0,0,1.668-.69l8.595-8.584a2.36,2.36,0,1,0-3.336-3.34l-8.595,8.584a2.36,2.36,0,0,0,1.668,4.03Z" transform="translate(-283.861 -2.102)" fill="#101a37"/>
    <path id="Path_63" data-name="Path 63" d="M60.607,430.9a2.36,2.36,0,0,0,.029,3.338l.007.007a2.36,2.36,0,1,0-.035-3.345Z" transform="translate(-45.199 -329.367)" fill="#101a37"/>
    <path id="Path_64" data-name="Path 64" d="M334.876,336.84a2.361,2.361,0,1,0-1.061-4.469l-.013.007a2.359,2.359,0,0,0,1.074,4.462Z" transform="translate(-253.893 -254.278)" fill="#101a37"/>
  </g>
</svg>
