<svg xmlns="http://www.w3.org/2000/svg" width="200" height="105" viewBox="0 0 200 105">
  <g id="Graph" transform="translate(-1190 -719)">
    <rect id="Rectangle_10" data-name="Rectangle 10" width="25" height="5" rx="2.5" transform="translate(1190 739)" fill="#777" opacity="0.3"/>
    <rect id="Rectangle_24" data-name="Rectangle 24" width="25" height="5" rx="2.5" transform="translate(1190 719)" fill="#777" opacity="0.3"/>
    <rect id="Rectangle_11" data-name="Rectangle 11" width="25" height="5" rx="2.5" transform="translate(1190 759)" fill="#777" opacity="0.3"/>
    <rect id="Rectangle_13" data-name="Rectangle 13" width="25" height="5" rx="2.5" transform="translate(1190 779)" fill="#777" opacity="0.3"/>
    <rect id="Rectangle_15" data-name="Rectangle 15" width="25" height="5" rx="2.5" transform="translate(1190 799)" fill="#777" opacity="0.3"/>
    <rect id="Rectangle_17" data-name="Rectangle 17" width="25" height="5" rx="2.5" transform="translate(1190 819)" fill="#777" opacity="0.3"/>
    <rect id="Rectangle_18" data-name="Rectangle 18" width="25" height="5" rx="2.5" transform="translate(1225 819)" fill="#777" opacity="0.3"/>
    <rect id="Rectangle_19" data-name="Rectangle 19" width="25" height="5" rx="2.5" transform="translate(1260 819)" fill="#777" opacity="0.3"/>
    <rect id="Rectangle_20" data-name="Rectangle 20" width="25" height="5" rx="2.5" transform="translate(1295 819)" fill="#777" opacity="0.3"/>
    <rect id="Rectangle_21" data-name="Rectangle 21" width="25" height="5" rx="2.5" transform="translate(1330 819)" fill="#777" opacity="0.3"/>
    <rect id="Rectangle_22" data-name="Rectangle 22" width="25" height="5" rx="2.5" transform="translate(1365 819)" fill="#777" opacity="0.3"/>
    <rect id="Rectangle_25" data-name="Rectangle 25" width="10" height="68" rx="5" transform="translate(1240 746)" fill="#4a01f9"/>
    <rect id="Rectangle_27" data-name="Rectangle 27" width="10" height="18" rx="5" transform="translate(1275 796)" fill="#4a01f9"/>
    <rect id="Rectangle_29" data-name="Rectangle 29" width="10" height="50" rx="5" transform="translate(1310 764)" fill="#4a01f9"/>
    <rect id="Rectangle_31" data-name="Rectangle 31" width="10" height="73" rx="5" transform="translate(1345 741)" fill="#4a01f9"/>
    <rect id="Rectangle_33" data-name="Rectangle 33" width="10" height="44" rx="5" transform="translate(1380 769)" fill="#4a01f9"/>
    <rect id="Rectangle_26" data-name="Rectangle 26" width="10" height="36" rx="5" transform="translate(1225 778)" fill="#e5a30d"/>
    <rect id="Rectangle_28" data-name="Rectangle 28" width="10" height="45" rx="5" transform="translate(1260 769)" fill="#e5a30d"/>
    <rect id="Rectangle_30" data-name="Rectangle 30" width="10" height="27" rx="5" transform="translate(1295 787)" fill="#e5a30d"/>
    <rect id="Rectangle_32" data-name="Rectangle 32" width="10" height="88" rx="5" transform="translate(1330 726)" fill="#e5a30d"/>
    <rect id="Rectangle_34" data-name="Rectangle 34" width="10" height="20" rx="5" transform="translate(1365 793)" fill="#e5a30d"/>
  </g>
</svg>
