<svg xmlns="http://www.w3.org/2000/svg" width="121.875" height="120" viewBox="0 0 121.875 120">
  <g id="Group_50" data-name="Group 50" transform="translate(0.001 -0.358)">
    <g id="Group_49" data-name="Group 49" transform="translate(-0.001 0.358)">
      <path id="Path_58" data-name="Path 58" d="M76.222,23.249a22.823,22.823,0,0,1,45.646,0,6.557,6.557,0,1,1-13.114,0,9.709,9.709,0,0,0-19.419,0,6.557,6.557,0,1,1-13.114,0Zm-72.71-.071a22.823,22.823,0,0,1,45.646,0,6.557,6.557,0,1,1-13.114,0,9.709,9.709,0,0,0-19.419,0,6.557,6.557,0,1,1-13.114,0ZM.6,81.8a7.867,7.867,0,1,1,14.533-6.032c7.283,17.533,25.322,28.86,45.958,28.86,20.169,0,38.1-11.333,45.69-28.879a7.867,7.867,0,1,1,14.441,6.245c-10.074,23.306-33.678,38.365-60.131,38.365C34.078,120.361,10.334,105.225.6,81.8Z" transform="translate(0.001 -0.358)" fill="#101a37"/>
    </g>
  </g>
</svg>
