<svg id="our-vission-icon" xmlns="http://www.w3.org/2000/svg" width="45" height="45" viewBox="0 0 45 45">
  <path id="Path_1021" data-name="Path 1021" d="M12.656,6.482A1.407,1.407,0,0,1,11.25,5.076V1.406a1.406,1.406,0,0,1,2.813,0V5.076A1.407,1.407,0,0,1,12.656,6.482Z" transform="translate(9.844)" fill="#4a01f9"/>
  <path id="Path_1022" data-name="Path 1022" d="M19.227,8.7a1.407,1.407,0,0,1-.994-2.4l2.6-2.595A1.407,1.407,0,1,1,22.818,5.7l-2.6,2.595A1.41,1.41,0,0,1,19.227,8.7Z" transform="translate(15.594 2.882)" fill="#4a01f9"/>
  <path id="Path_1023" data-name="Path 1023" d="M25.619,14.063H21.949a1.406,1.406,0,0,1,0-2.812h3.669a1.406,1.406,0,0,1,0,2.813Z" transform="translate(17.975 9.844)" fill="#4a01f9"/>
  <path id="Path_1024" data-name="Path 1024" d="M21.822,23.229a1.4,1.4,0,0,1-.994-.412l-2.6-2.6a1.407,1.407,0,0,1,1.989-1.989l2.6,2.6a1.407,1.407,0,0,1-1,2.4Z" transform="translate(15.594 15.593)" fill="#4a01f9"/>
  <path id="Path_1025" data-name="Path 1025" d="M4.7,23.229a1.407,1.407,0,0,1-.994-2.4l2.6-2.6a1.407,1.407,0,0,1,1.989,1.989l-2.6,2.6A1.4,1.4,0,0,1,4.7,23.229Z" transform="translate(2.883 15.593)" fill="#4a01f9"/>
  <path id="Path_1026" data-name="Path 1026" d="M5.076,14.063H1.406a1.406,1.406,0,0,1,0-2.812H5.076a1.406,1.406,0,0,1,0,2.813Z" transform="translate(0 9.844)" fill="#4a01f9"/>
  <path id="Path_1027" data-name="Path 1027" d="M7.3,8.7A1.4,1.4,0,0,1,6.3,8.291L3.707,5.7A1.407,1.407,0,1,1,5.7,3.706L8.292,6.3a1.407,1.407,0,0,1-1,2.4Z" transform="translate(2.883 2.882)" fill="#4a01f9"/>
  <path id="Path_1028" data-name="Path 1028" d="M20.25,21v2.344a3.3,3.3,0,0,1-3.281,3.281H12.281C10.706,26.625,9,25.425,9,22.8V21Z" transform="translate(7.875 18.375)" fill="#4a01f9"/>
  <path id="Path_1029" data-name="Path 1029" d="M26.395,7.924A13.126,13.126,0,1,0,10.232,28.605a5.662,5.662,0,0,1,2.138,3.581v.019a.319.319,0,0,1,.131-.019h11.25a.169.169,0,0,1,.094.019v-.019a6.254,6.254,0,0,1,2.4-3.75,13.132,13.132,0,0,0,.15-20.512ZM25.157,19.061a1.416,1.416,0,0,1-1.406-1.406A5.153,5.153,0,0,0,18.595,12.5a1.406,1.406,0,1,1,0-2.812,7.986,7.986,0,0,1,7.969,7.969A1.416,1.416,0,0,1,25.157,19.061Z" transform="translate(4.374 4.376)" fill="#4a01f9"/>
  <path id="Path_1030" data-name="Path 1030" d="M8.93,19.5h.131a.319.319,0,0,0-.131.019Z" transform="translate(7.814 17.063)" fill="#4a01f9"/>
  <path id="Path_1031" data-name="Path 1031" d="M15.094,19.5v.019A.169.169,0,0,0,15,19.5Z" transform="translate(13.125 17.063)" fill="#4a01f9"/>
</svg>
