<svg xmlns="http://www.w3.org/2000/svg" width="68.462" height="70" viewBox="0 0 68.462 70">
  <g id="Group_73" data-name="Group 73" transform="translate(-0.402 0)">
    <path id="Path_972" data-name="Path 972" d="M171.088,88.786a6.846,6.846,0,1,1,6.846-6.846A6.853,6.853,0,0,1,171.088,88.786Zm0-11.41a4.564,4.564,0,1,0,4.564,4.564A4.569,4.569,0,0,0,171.088,77.376Zm0,0" transform="translate(-136.455 -62.543)" fill="#101a37"/>
    <path id="Path_973" data-name="Path 973" d="M238.006,78.414a1.141,1.141,0,0,1-.723-2.025,1.132,1.132,0,0,0,.263-.311L248.44,56.589a1.141,1.141,0,1,0-1.968-1.154l-9.552,17.088a1.142,1.142,0,0,1-1.993-1.114l9.56-17.1a3.423,3.423,0,1,1,5.936,3.411L239.531,77.206a3.429,3.429,0,0,1-.8.951,1.139,1.139,0,0,1-.722.257Zm0,0" transform="translate(-195.206 -43.795)" fill="#101a37"/>
    <path id="Path_974" data-name="Path 974" d="M44.3,322.638a3.421,3.421,0,0,1-2.446-5.81L54.31,303.695a1.141,1.141,0,0,1,1.656,1.571L43.5,318.411a1.141,1.141,0,1,0,1.623,1.6L57.7,306.75a1.141,1.141,0,0,1,1.656,1.571L46.765,321.6a3.439,3.439,0,0,1-2.466,1.04Zm0,0" transform="translate(-33.713 -252.638)" fill="#101a37"/>
    <path id="Path_975" data-name="Path 975" d="M94.429,78.4a1.136,1.136,0,0,1-.725-.26,3.417,3.417,0,0,1-.786-.929L82.008,57.7a3.423,3.423,0,0,1,5.937-3.409L97.513,71.4a1.141,1.141,0,0,1-1.992,1.114l-9.56-17.1a1.141,1.141,0,0,0-1.968,1.154L94.9,76.086a1.123,1.123,0,0,0,.252.294,1.141,1.141,0,0,1-.725,2.023Zm0,0" transform="translate(-67.589 -43.79)" fill="#101a37"/>
    <path id="Path_976" data-name="Path 976" d="M277.265,299.5a3.422,3.422,0,0,1-3.379-3.985l1.846-11.078-3.881-1.725a1.141,1.141,0,0,1,.927-2.086l4.688,2.084a1.141,1.141,0,0,1,.661,1.23l-1.991,11.949a1.141,1.141,0,1,0,2.251.375l2.282-13.691a1.139,1.139,0,0,0-.661-1.23l-7.027-3.123a1.141,1.141,0,0,1,.927-2.086l7.027,3.123a3.424,3.424,0,0,1,1.985,3.691l-2.282,13.692A3.412,3.412,0,0,1,277.265,299.5Zm0,0" transform="translate(-225.514 -229.902)" fill="#101a37"/>
    <path id="Path_977" data-name="Path 977" d="M122,193.946a1.146,1.146,0,0,1-.777-.306l-6.684-6.216a1.142,1.142,0,0,1,.012-1.682l6.8-6.159-1.088-11.668a3.99,3.99,0,0,1,3.964-4.075h10.318a3.973,3.973,0,0,1,3.969,3.969c0,.039,0,.079-.006.118l-1.054,10.164,6.007,2.528a1.141,1.141,0,0,1,.634,1.429l-2.655,7.593a1.141,1.141,0,0,1-1.547.663l-10.028-4.54-7.02,7.805a1.144,1.144,0,0,1-.8.377H122Zm-5-7.346,4.924,4.579,6.8-7.564a1.145,1.145,0,0,1,1.319-.276l9.652,4.37,1.889-5.4-5.8-2.441a1.142,1.142,0,0,1-.692-1.17l1.134-10.938a1.689,1.689,0,0,0-1.686-1.635H124.227a1.688,1.688,0,0,0-1.686,1.687l1.135,12.13a1.139,1.139,0,0,1-.37.952Zm0,0" transform="translate(-94.754 -136.456)" fill="#101a37"/>
    <path id="Path_978" data-name="Path 978" d="M108.625,56.9H62.984a1.141,1.141,0,0,1,0-2.282h45.641a1.141,1.141,0,1,1,0,2.282Zm0,0" transform="translate(-51.172 -45.485)" fill="#101a37"/>
    <path id="Path_979" data-name="Path 979" d="M45.927,20.538H42.5A1.14,1.14,0,0,1,41.363,19.4V1.141A1.141,1.141,0,0,1,42.5,0h3.423a1.141,1.141,0,0,1,1.141,1.141V19.4A1.14,1.14,0,0,1,45.927,20.538Zm-2.282-2.282h1.141V2.282H43.645Zm0,0" transform="translate(-34.115)" fill="#101a37"/>
    <path id="Path_980" data-name="Path 980" d="M25.447,20.538H22.024A1.141,1.141,0,0,1,20.883,19.4V1.141A1.141,1.141,0,0,1,22.024,0h3.423a1.141,1.141,0,0,1,1.141,1.141V19.4A1.14,1.14,0,0,1,25.447,20.538Zm-2.283-2.282h1.141V2.282H23.165Zm0,0" transform="translate(-17.057)" fill="#101a37"/>
    <path id="Path_981" data-name="Path 981" d="M359.954,20.538h-3.423A1.14,1.14,0,0,1,355.39,19.4V1.141A1.141,1.141,0,0,1,356.531,0h3.423A1.141,1.141,0,0,1,361.1,1.141V19.4A1.141,1.141,0,0,1,359.954,20.538Zm-2.282-2.282h1.141V2.282h-1.141Zm0,0" transform="translate(-295.655)" fill="#101a37"/>
    <path id="Path_982" data-name="Path 982" d="M339.474,20.538h-3.423A1.14,1.14,0,0,1,334.91,19.4V1.141A1.141,1.141,0,0,1,336.051,0h3.423a1.141,1.141,0,0,1,1.141,1.141V19.4A1.141,1.141,0,0,1,339.474,20.538Zm-2.282-2.282h1.141V2.282h-1.141Zm0,0" transform="translate(-278.598)" fill="#101a37"/>
    <path id="Path_983" data-name="Path 983" d="M4.967,56.9H1.544a1.141,1.141,0,1,1,0-2.282H4.967a1.141,1.141,0,0,1,0,2.282Zm0,0" transform="translate(0 -45.485)" fill="#101a37"/>
    <path id="Path_984" data-name="Path 984" d="M380.435,56.9h-3.423a1.141,1.141,0,0,1,0-2.282h3.423a1.141,1.141,0,1,1,0,2.282Zm0,0" transform="translate(-312.712 -45.485)" fill="#101a37"/>
  </g>
</svg>
