<svg id="Group_82" data-name="Group 82" xmlns="http://www.w3.org/2000/svg" width="89.413" height="70" viewBox="0 0 89.413 70">
  <g id="Group_81" data-name="Group 81" transform="translate(0 0)">
    <g id="Group_80" data-name="Group 80">
      <path id="Path_988" data-name="Path 988" d="M6.688,115.348c2.444-2.938,15.075-18.06,19.964-22.786,2.59-2.5,7.175-4.256,14.3,1.609l17.28,13.946a12.674,12.674,0,0,0,5.992-8.735,1.215,1.215,0,0,1,.028-.152,4.135,4.135,0,0,0-.642-.991A7.064,7.064,0,0,1,61.87,92.2c.247-1.359,1.69-2.577,3.516-4.12a31.167,31.167,0,0,0,2.985-2.748L55.339,79.963a7.373,7.373,0,0,1-.491-13.413l4.95-2.475a9.649,9.649,0,0,1,9.548-8.494,9.551,9.551,0,0,1,5.161,1.5,4.385,4.385,0,0,1,4.711,4.474,7.381,7.381,0,0,1,7.207,7.369V79.382a1.589,1.589,0,0,0,1.587,1.587,1.4,1.4,0,0,1,1.4,1.4,6.289,6.289,0,0,1-2.336,4.579,7.522,7.522,0,0,1-4.537,1.824c.653,12.982-4.963,20.557-10.905,27.2-.573.64-1.147,1.369-1.755,2.14-2.158,2.739-4.6,5.843-8.5,6.924a12.124,12.124,0,0,1-3.256.468c-3.95,0-6.739-2.2-9.261-4.193l-.482-.38C41.593,115.6,34.955,107.043,32.55,103.8L16.239,118.823v5.359a1.4,1.4,0,0,1-1.4,1.4H1.4a1.4,1.4,0,0,1-1.4-1.4v-1.493A7.383,7.383,0,0,1,6.688,115.348ZM69.346,58.382a6.845,6.845,0,0,0-6.215,4.027L70.85,58.55A6.85,6.85,0,0,0,69.346,58.382Zm9.4,23.448A2.074,2.074,0,0,0,77.4,80.716L57.723,74.479a1.4,1.4,0,0,1-.2-2.587l18.024-9.011a1.587,1.587,0,1,0-1.419-2.839L56.1,69.055a4.573,4.573,0,0,0,.3,8.319l19.318,7.955a1.58,1.58,0,0,0,.6.121,2.587,2.587,0,0,0,2.364-1.506A2.712,2.712,0,0,0,78.741,81.83ZM73.87,76.661l2.289.725v-2.43A9.671,9.671,0,0,1,73.87,76.661Zm2.289-8.474V65.7l-12.49,6.244a6.862,6.862,0,0,0,1.586,1.681,5.322,5.322,0,0,0,1.6.806l1.073.34A4.694,4.694,0,0,0,69.339,75h.007A6.809,6.809,0,0,0,76.159,68.187Zm5.139,12.5a25.684,25.684,0,0,1,1.011,5.291,4.707,4.707,0,0,0,2.939-1.154,4.406,4.406,0,0,0,1.089-1.39,4.394,4.394,0,0,1-2.712-4.054V68.929a4.579,4.579,0,0,0-4.573-4.573h-.093V78.331A4.518,4.518,0,0,1,81.3,80.689ZM50.113,118.725l.488.385c3.022,2.386,5.632,4.447,10.032,3.225,3.008-.836,5.061-3.44,7.046-5.959.636-.807,1.236-1.568,1.867-2.274,2.921-3.264,6.2-7.17,8.209-12.229a31.438,31.438,0,0,0,1.858-14.713,5.528,5.528,0,0,1-3.286,1.091,4.371,4.371,0,0,1-1.669-.331l-3.574-1.472a26.2,26.2,0,0,1-3.889,3.771,13.642,13.642,0,0,0-2.572,2.5,4.36,4.36,0,0,0,1.212,3.82,3.981,3.981,0,0,1,1.159,3.243,15.57,15.57,0,0,1-6.464,10.189l3.536,2.854a1.4,1.4,0,0,1-1.759,2.179l-9.253-7.468-7.016,7.6A52.921,52.921,0,0,0,50.113,118.725Zm-34.922-2.743,16.618-15.3a1.391,1.391,0,0,1,2.09.222h0a122.387,122.387,0,0,0,10.161,12.245l6.809-7.372L39.181,96.34c-4.509-3.712-7.97-4.29-10.582-1.766-4.072,3.936-14.036,15.728-18.234,20.74h2.981A2.881,2.881,0,0,1,15.191,115.982ZM2.8,122.782h10.64v-4.573a.093.093,0,0,0-.093-.093H7.372A4.579,4.579,0,0,0,2.8,122.688v.093Z" transform="translate(0.001 -55.582)" fill="#101a37"/>
    </g>
  </g>
</svg>
