<svg xmlns="http://www.w3.org/2000/svg" width="70.009" height="70" viewBox="0 0 70.009 70">
  <g id="Group_83" data-name="Group 83" transform="translate(0)">
    <g id="_06-boxing" data-name="06-boxing" transform="translate(0)">
      <path id="Path_989" data-name="Path 989" d="M37.844,27.687a9.243,9.243,0,0,1-8.67-6.152,1.094,1.094,0,0,1,.65-1.442,2.462,2.462,0,0,0,1.458-2.25,2.2,2.2,0,0,0-1.559-2.1A2.464,2.464,0,0,1,28,13.381a4.408,4.408,0,0,1,.74-2.449l.645-.967A4.4,4.4,0,0,1,33.06,8h1.812a4.441,4.441,0,0,1,1.975.466,2.24,2.24,0,0,0,1.993,0A4.441,4.441,0,0,1,40.815,8h1.812A4.4,4.4,0,0,1,46.3,9.969l.644.965a4.406,4.406,0,0,1,.742,2.448,2.464,2.464,0,0,1-1.723,2.366,2.2,2.2,0,0,0-1.559,2.1,2.462,2.462,0,0,0,1.459,2.25,1.094,1.094,0,0,1,.649,1.442A9.248,9.248,0,0,1,37.844,27.687Zm-6.234-6.1a6.93,6.93,0,0,0,12.477,0,4.764,4.764,0,0,1-1.868-3.744,4.4,4.4,0,0,1,3.12-4.192.277.277,0,0,0,.161-.27,2.217,2.217,0,0,0-.375-1.237l-.643-.964a2.219,2.219,0,0,0-1.859-.993H40.815a2.232,2.232,0,0,0-1,.235,4.434,4.434,0,0,1-3.951,0,2.232,2.232,0,0,0-1-.235H33.06a2.22,2.22,0,0,0-1.854.992l-.644.966a2.219,2.219,0,0,0-.374,1.236.277.277,0,0,0,.161.27,4.4,4.4,0,0,1,3.12,4.192A4.764,4.764,0,0,1,31.609,21.588Z" transform="translate(2.625 0.75)" fill="#101a37"/>
      <path id="Path_990" data-name="Path 990" d="M41.65,30.625H34.788a9.79,9.79,0,0,1-9.729-8.347l-1.046-6.8A1.055,1.055,0,0,1,24,15.312V7.656A7.665,7.665,0,0,1,31.656,0H44.781a7.665,7.665,0,0,1,7.656,7.656H50.25a5.475,5.475,0,0,0-5.469-5.469H31.656a5.475,5.475,0,0,0-5.469,5.469v7.572l1.033,6.717a7.617,7.617,0,0,0,7.568,6.493H41.65a7.617,7.617,0,0,0,7.568-6.492l1.032-6.717V9.844h2.188v5.469a1.054,1.054,0,0,1-.013.166l-1.046,6.8A9.79,9.79,0,0,1,41.65,30.625Z" transform="translate(2.25)" fill="#101a37"/>
      <path id="Path_991" data-name="Path 991" d="M42,10.937V8.75a3.281,3.281,0,0,0,3.281-3.281c0-1.778-1-3.281-2.187-3.281V0c2.413,0,4.375,2.453,4.375,5.469A5.475,5.475,0,0,1,42,10.937Z" transform="translate(3.938)" fill="#101a37"/>
      <path id="Path_992" data-name="Path 992" d="M32.469,10.937A5.475,5.475,0,0,1,27,5.469C27,2.453,28.962,0,31.375,0V2.187c-1.186,0-2.187,1.5-2.187,3.281A3.281,3.281,0,0,0,32.469,8.75Z" transform="translate(2.531)" fill="#101a37"/>
      <path id="Path_993" data-name="Path 993" d="M48.375,23.375H46.188A2.187,2.187,0,0,0,44,21.188V19A4.375,4.375,0,0,1,48.375,23.375Z" transform="translate(4.125 1.781)" fill="#101a37"/>
      <path id="Path_994" data-name="Path 994" d="M28.188,23.375H26A4.375,4.375,0,0,1,30.375,19v2.188A2.187,2.187,0,0,0,28.188,23.375Z" transform="translate(2.438 1.781)" fill="#101a37"/>
      <path id="Path_995" data-name="Path 995" d="M9.188,41.369H7v-.32a9.843,9.843,0,0,1,5.063-8.6l3.359-1.867A9.871,9.871,0,0,1,20.2,29.337h8.123L31.281,25.4l1.75,1.313L29.75,31.087a1.094,1.094,0,0,1-.875.438H20.2a7.685,7.685,0,0,0-3.719.964l-3.361,1.867a7.656,7.656,0,0,0-3.937,6.693Z" transform="translate(0.656 2.381)" fill="#101a37"/>
      <path id="Path_996" data-name="Path 996" d="M20.563,54.875a1.094,1.094,0,0,1-.89-.458L14.2,46.76a1.094,1.094,0,0,1,.282-1.545l3.136-2.091,5.906-7.518A6.581,6.581,0,0,1,28.766,33h3.71a5.469,5.469,0,0,1,2.814.779l2.305,1.384a5.494,5.494,0,0,1,2.656,4.689v5.179a4.375,4.375,0,0,1-8.75,0v-1.35L23.2,48.66l.961,1.443,5.662-3.54,1.159,1.859-6.549,4.091L21.17,54.691a1.087,1.087,0,0,1-.607.184Zm-3.923-8.467,4.2,5.876,1.46-.973-4.2-5.876Zm15.955-5.752a1.094,1.094,0,0,1,1.094,1.094v3.281a2.188,2.188,0,0,0,4.375,0V39.852a3.3,3.3,0,0,0-1.594-2.814l-2.3-1.384a3.294,3.294,0,0,0-1.689-.467h-3.71a4.4,4.4,0,0,0-3.5,1.75l-5.525,7.031,2.109,2.953,10.181-6.109a1.087,1.087,0,0,1,.563-.156Z" transform="translate(1.312 3.094)" fill="#101a37"/>
      <path id="Path_997" data-name="Path 997" d="M49.125,49.781a1.094,1.094,0,0,1-.831-.382l-4.686-5.469,1.663-1.422L49.5,47.443l1.962-.56-5.666-7.4-1.455,1.7A4.475,4.475,0,0,1,38.8,43.135a4.282,4.282,0,0,1-2.625-5.218L37.2,34.48a5.484,5.484,0,0,1,2.046-2.873l2.1-1.524A5.772,5.772,0,0,1,44.7,29h3.408a5.675,5.675,0,0,1,3.964,1.588l4.142,4a5.432,5.432,0,0,1,1.661,3.881V46.5a1.094,1.094,0,0,1-.794,1.051l-7.656,2.188a1.078,1.078,0,0,1-.3.043ZM45.843,36.656h.03a1.094,1.094,0,0,1,.839.429l7.007,9.151,1.969-.561V38.469a3.187,3.187,0,0,0-.992-2.307l-4.142-4a3.548,3.548,0,0,0-2.446-.975H44.7a3.555,3.555,0,0,0-2.078.667l-2.1,1.52A3.3,3.3,0,0,0,39.288,35.1l-1.017,3.438a2.108,2.108,0,0,0,1.32,2.556,2.315,2.315,0,0,0,2.871-1.037,1.062,1.062,0,0,1,.141-.209l2.406-2.81a1.094,1.094,0,0,1,.833-.38Z" transform="translate(3.375 2.719)" fill="#101a37"/>
      <path id="Path_998" data-name="Path 998" d="M49.183,51.592a1.094,1.094,0,0,1-1.037-.748l-1.094-3.281,2.078-.691.766,2.287,5.551-1.586-.732-2.2,2.078-.691,1.094,3.281a1.094,1.094,0,0,1-.737,1.4l-7.656,2.188a1.05,1.05,0,0,1-.311.043Z" transform="translate(4.411 4.189)" fill="#101a37"/>
      <path id="Path_999" data-name="Path 999" d="M60.159,65.554H53.378a1.094,1.094,0,0,1-1.046-.772L48.968,53.844l2.091-.642,3.126,10.164h5.974a3.062,3.062,0,0,0,2.516-4.822l-6.9-9.863,1.792-1.253,6.9,9.863a5.25,5.25,0,0,1-4.308,8.263Z" transform="translate(4.591 4.446)" fill="#101a37"/>
      <path id="Path_1000" data-name="Path 1000" d="M8.5,66.25A6.64,6.64,0,0,1,4.367,64.8L2.481,63.3A6.575,6.575,0,0,1,0,58.13V52.5a9.162,9.162,0,0,1,4.882-8.116C13.16,40,13.8,40,14.219,40v2.188a.521.521,0,0,0,.109-.009c-.167.035-1.357.4-8.422,4.137A6.978,6.978,0,0,0,2.188,52.5V58.13a4.4,4.4,0,0,0,1.66,3.453l1.887,1.51a4.422,4.422,0,0,0,6.035-.479l9.3-10.225,1.619,1.472-9.3,10.225A6.624,6.624,0,0,1,8.5,66.25Z" transform="translate(0 3.75)" fill="#101a37"/>
      <rect id="Rectangle_297" data-name="Rectangle 297" width="12.136" height="2.187" transform="translate(0.504 58.143) rotate(-32.744)" fill="#101a37"/>
      <rect id="Rectangle_298" data-name="Rectangle 298" width="3.901" height="2.187" transform="translate(12.534 50.408) rotate(-32.744)" fill="#101a37"/>
      <path id="Path_1001" data-name="Path 1001" d="M40.792,32.389,38.6,31.295a1.094,1.094,0,0,1-.547-1.325l1.094-3.281,2.078.691-.793,2.382,1.339.668Z" transform="translate(3.563 2.502)" fill="#101a37"/>
      <rect id="Rectangle_299" data-name="Rectangle 299" width="2.186" height="4.51" transform="matrix(0.97, -0.243, 0.243, 0.97, 26.282, 33.077)" fill="#101a37"/>
      <rect id="Rectangle_300" data-name="Rectangle 300" width="2.187" height="9.904" transform="translate(20.787 32.933) rotate(-6.34)" fill="#101a37"/>
      <path id="Path_1002" data-name="Path 1002" d="M43.308,65.688H18.152a1.094,1.094,0,0,1-1.085-.958l-.684-5.469,2.17-.271.564,4.511H42.723l6.054-9.078V46h2.187v8.75a1.1,1.1,0,0,1-.184.607L44.218,65.2A1.094,1.094,0,0,1,43.308,65.688Z" transform="translate(1.536 4.312)" fill="#101a37"/>
      <path id="Path_1003" data-name="Path 1003" d="M53.935,64.492h-4.24a6.86,6.86,0,0,1-6.664-5.2l2.122-.532A4.675,4.675,0,0,0,49.694,62.3h4.24Z" transform="translate(4.034 5.508)" fill="#101a37"/>
    </g>
  </g>
</svg>
