<svg xmlns="http://www.w3.org/2000/svg" width="70.054" height="70" viewBox="0 0 70.054 70">
  <g id="Group_79" data-name="Group 79" transform="translate(-15.633 -16)">
    <g id="OUTLINE" transform="translate(15.633 16)">
      <path id="Path_987" data-name="Path 987" d="M81.6,77.833H51.853v2.333H81.6a1.75,1.75,0,0,1,0,3.5H49.319a3.483,3.483,0,0,0,.2-1.167V72.706a1.163,1.163,0,0,1,.2-.647l1.1-1.644,1.387.792,5.488-7.84L62.11,68.9l1.37-.913,3.1,3.869a3.483,3.483,0,0,0,2.733,1.314h7.246A3.5,3.5,0,0,0,83.353,72V68.5a3.5,3.5,0,0,0-3.5-3.5H71.768a1.164,1.164,0,0,1-.971-.52l-.635-.952.863-.575-6.858-9.144a3.9,3.9,0,0,0,.518-1.943v-.138a1.577,1.577,0,0,1,.208-.782l3.518-6.157a3.481,3.481,0,0,0-.306-3.923L60.654,31.55a8.117,8.117,0,0,0,4.033-7.043v-.34A8.176,8.176,0,0,0,56.519,16H44.525l.645,2.581a5.822,5.822,0,0,0,2.015,3.142v4.5a3.481,3.481,0,0,0,1.935,3.131l.611.306.861,2.583-1.862,3.724-3.742.748a1.162,1.162,0,0,1-1.2-.5L40.51,31.3a1.921,1.921,0,0,1-.324-1.069v-.46a4.26,4.26,0,0,0-6.816-3.408l-.267.2a4.254,4.254,0,0,0-1.486,4.755l.057.17A4.233,4.233,0,0,0,33.81,33.95l.265.133a1.94,1.94,0,0,1,.862.862l4.506,9.012a3.5,3.5,0,0,0,4.092,1.8l4.817-1.376V54.2L42.106,65.441l1.069.611L41.6,69.983a3.483,3.483,0,0,0-.25,1.3V79.2a3.5,3.5,0,0,0-2.133,4.466H19.769a1.75,1.75,0,0,1,0-3.5H37.853V77.833H29.686v-21H41.353a3.5,3.5,0,0,0,3.5-3.5V52.167a3.5,3.5,0,0,0-3.5-3.5H28.933a1.161,1.161,0,0,1-1.083-.733L24.356,39.2a3.483,3.483,0,0,0-3.25-2.2H19.133a3.5,3.5,0,0,0-3.25,4.8l5.133,12.833a3.526,3.526,0,0,0,.5.871V77.833h-1.75a4.083,4.083,0,0,0,0,8.167H81.6a4.083,4.083,0,1,0,0-8.167Zm-2.917-10.5h1.167A1.168,1.168,0,0,1,81.019,68.5V72a1.167,1.167,0,0,1-2.333,0Zm-51.333,10.5h-3.5V56.807a3.551,3.551,0,0,0,.413.026h3.087Zm-9.3-36.9a1.167,1.167,0,0,1,1.083-1.6h1.974a1.161,1.161,0,0,1,1.083.733L25.683,48.8a3.483,3.483,0,0,0,3.25,2.2h12.42a1.168,1.168,0,0,1,1.167,1.167v1.167A1.168,1.168,0,0,1,41.353,54.5H24.266a1.161,1.161,0,0,1-1.083-.733ZM68.856,65.775a3.493,3.493,0,0,0,2.912,1.559h4.585v3.5H69.308A1.161,1.161,0,0,1,68.4,70.4l-2.968-3.71,2.793-1.862ZM66.284,42.324a1.16,1.16,0,0,1,.1,1.308l-3.518,6.157a3.914,3.914,0,0,0-.515,1.939v.138a1.572,1.572,0,0,1-.7,1.311l-.758.505a1.571,1.571,0,0,1-1.748,0l-.758-.505a1.573,1.573,0,0,1-.7-1.313v-.33a1.572,1.572,0,0,1,.876-1.417l.029-.015a3.829,3.829,0,0,0,1.7-1.7l1.066-2.135A3.5,3.5,0,0,0,60.328,41.9l-.63-.472a3.493,3.493,0,0,1-1.3-3.649l1.011-4.042ZM55.352,51.861a3.909,3.909,0,0,0,.287,1.472H50.686V37.275L52.574,33.5h4.493l-.928,3.711A5.821,5.821,0,0,0,58.3,43.292l.63.472a1.167,1.167,0,0,1,.344,1.456l-1.066,2.135a1.481,1.481,0,0,1-.659.659l-.029.015a3.891,3.891,0,0,0-2.166,3.51ZM47.53,18.333h8.99a5.84,5.84,0,0,1,5.833,5.833v.34a5.8,5.8,0,0,1-2.333,4.669V26.5a5.84,5.84,0,0,0-5.833-5.833H50.83A3.494,3.494,0,0,1,47.53,18.333Zm2.635,8.935a1.16,1.16,0,0,1-.645-1.044V22.851A5.855,5.855,0,0,0,50.83,23h3.356a3.5,3.5,0,0,1,3.5,3.5v4.523l-.036.144H52.694L51.64,28.006ZM35.119,32l-.265-.133a1.913,1.913,0,0,1-.966-1.114l-.057-.17a1.924,1.924,0,0,1,.672-2.15l.267-.2a1.927,1.927,0,0,1,3.083,1.541v.46A4.245,4.245,0,0,0,38.24,32l-1.879.939A4.272,4.272,0,0,0,35.119,32Zm7.775,11.517a1.167,1.167,0,0,1-1.364-.6l-3.979-7.958,1.944-.972,2.353,3.53A3.489,3.489,0,0,0,45.447,39l2.905-.581v3.53Zm7.312,12.154h7.716a3.891,3.891,0,0,0,4.266-.043l.283-.189L67.68,62.38,62.6,65.769l-3.515-4.394,1.895-2.706-1.911-1.338L51.508,68.126l-6.242-3.567ZM47.186,82.5a1.168,1.168,0,0,1-1.167,1.167h-3.5a1.167,1.167,0,0,1,0-2.333h4.667Zm.588-11.735a3.488,3.488,0,0,0-.588,1.942V79h-3.5V71.283a1.161,1.161,0,0,1,.083-.433l1.451-3.629,3.56,2.034Z" transform="translate(-15.633 -16)" fill="#101a37"/>
      <rect id="Rectangle_291" data-name="Rectangle 291" width="15.167" height="2.333" transform="translate(50.22 15.167)" fill="#101a37"/>
      <rect id="Rectangle_292" data-name="Rectangle 292" width="2.333" height="2.333" transform="translate(67.72 15.167)" fill="#101a37"/>
      <rect id="Rectangle_293" data-name="Rectangle 293" width="7" height="2.333" transform="translate(52.554 7)" fill="#101a37"/>
      <rect id="Rectangle_294" data-name="Rectangle 294" width="2.333" height="2.333" transform="translate(61.887 7)" fill="#101a37"/>
      <rect id="Rectangle_295" data-name="Rectangle 295" width="10.5" height="2.333" transform="translate(57.22 24.5)" fill="#101a37"/>
      <rect id="Rectangle_296" data-name="Rectangle 296" width="15.167" height="2.333" transform="translate(54.887 35)" fill="#101a37"/>
    </g>
  </g>
</svg>
